<svg width="1390" height="1413" viewBox="0 0 1390 1413" fill="none" xmlns="http://www.w3.org/2000/svg">
<path d="M1188.17 0L989.602 289.023H631.523L455.738 0H1188.17Z" fill="url(#paint0_linear_2_16)"/>
<path d="M1357.45 305.08L1188.17 587.68H800.797L989.602 289.023L1357.45 305.08Z" fill="url(#paint1_linear_2_16)"/>
<path d="M1015.64 931.295L1220.73 1252.43L182.295 1249.22L302.741 931.295H1015.64Z" fill="url(#paint2_linear_2_16)"/>
<path d="M1390 924.873L1015.64 931.295L804.051 613.37H1191.43L1390 924.873Z" fill="url(#paint3_linear_2_16)"/>
<path d="M598.97 289.023L345.059 931.295L221.359 1252.43L156.253 1413L0 1156.09L439.462 22.4794L598.97 289.023Z" fill="url(#paint4_linear_2_16)"/>
<path d="M1390 924.873L1220.73 1252.43L1015.64 931.295L1390 924.873Z" fill="url(#paint5_linear_2_16)"/>
<path d="M1357.45 305.08L989.602 289.023L1188.17 0L1357.45 305.08Z" fill="url(#paint6_linear_2_16)"/>
<defs>
<linearGradient id="paint0_linear_2_16" x1="-32.3159" y1="-1533.42" x2="1957.17" y2="-762.26" gradientUnits="userSpaceOnUse">
<stop stop-color="#001087"/>
<stop offset="0.1656" stop-color="#00108E"/>
<stop offset="0.4075" stop-color="#010FA2"/>
<stop offset="0.6962" stop-color="#020DC2"/>
<stop offset="1" stop-color="#030BEB"/>
</linearGradient>
<linearGradient id="paint1_linear_2_16" x1="816.743" y1="-1312.89" x2="415.369" y2="655.532" gradientUnits="userSpaceOnUse">
<stop stop-color="#001087"/>
<stop offset="0.1656" stop-color="#00108E"/>
<stop offset="0.4075" stop-color="#010FA2"/>
<stop offset="0.6962" stop-color="#020DC2"/>
<stop offset="1" stop-color="#030BEB"/>
</linearGradient>
<linearGradient id="paint2_linear_2_16" x1="-73.6613" y1="-246.865" x2="1558.05" y2="-12.827" gradientUnits="userSpaceOnUse">
<stop stop-color="#020A4F"/>
<stop offset="0.3445" stop-color="#030D77"/>
<stop offset="0.72" stop-color="#0613BF"/>
</linearGradient>
<linearGradient id="paint3_linear_2_16" x1="270.17" y1="-238.74" x2="2090.91" y2="906.445" gradientUnits="userSpaceOnUse">
<stop stop-color="#020A4F"/>
<stop offset="0.3445" stop-color="#030D77"/>
<stop offset="1" stop-color="#0613BF"/>
</linearGradient>
<linearGradient id="paint4_linear_2_16" x1="1192.08" y1="256.827" x2="980.414" y2="1280.56" gradientUnits="userSpaceOnUse">
<stop stop-color="#F7CC54"/>
<stop offset="0.0886849" stop-color="#F6C94E"/>
<stop offset="1" stop-color="#EDAE0F"/>
</linearGradient>
<linearGradient id="paint5_linear_2_16" x1="1767.35" y1="1138.48" x2="-3650.83" y2="-1432.22" gradientUnits="userSpaceOnUse">
<stop stop-color="#020A4F"/>
<stop offset="0.3628" stop-color="#020A51"/>
<stop offset="0.5327" stop-color="#020B59"/>
<stop offset="0.6624" stop-color="#030C65"/>
<stop offset="0.7717" stop-color="#030D78"/>
<stop offset="0.8682" stop-color="#040F90"/>
<stop offset="0.9544" stop-color="#0511AC"/>
<stop offset="1" stop-color="#0613BF"/>
</linearGradient>
<linearGradient id="paint6_linear_2_16" x1="1360.66" y1="67.4771" x2="490.152" y2="940.05" gradientUnits="userSpaceOnUse">
<stop stop-color="#001087"/>
<stop offset="0.1656" stop-color="#00108E"/>
<stop offset="0.4075" stop-color="#010FA2"/>
<stop offset="0.6962" stop-color="#020DC2"/>
<stop offset="1" stop-color="#030BEB"/>
</linearGradient>
</defs>
</svg>
