<svg viewBox="0 0 168 168" xmlns="http://www.w3.org/2000/svg" aria-label="Spotify">
  <circle cx="84" cy="84" r="84" fill="#1ED760"/>
  <path d="M122.7 122.6c-1.5 2.5-4.7 3.3-7.2 1.7-19.7-12-44.5-14.7-73.8-8-2.8.7-5.6-1.1-6.3-3.9-.7-2.8 1.1-5.6 3.9-6.3 32-7.3 59.4-4.2 81.5 9.3 2.5 1.6 3.3 4.8 1.9 7.2zm10.4-23.1c-1.9 3.1-5.9 4-8.9 2.1-22.5-13.8-56.7-17.8-83.3-9.7-3.4 1-7-.9-8-4.4-1-3.4.9-7 4.4-8 30.4-9.2 68.1-4.7 93.9 11.1 3 1.8 4 5.9 1.9 8.9zm.9-24c-26.9-16-71.4-17.5-97.1-9.7-4.1 1.2-8.4-1.1-9.6-5.2-1.2-4.1 1.1-8.4 5.2-9.6 29.5-9 78.4-7.2 109.4 11.2 3.7 2.2 4.9 7 2.7 10.7-2.2 3.6-7 4.8-10.6 2.6z" fill="#fff"/>
</svg>
